<svg width="311" height="123" viewBox="0 0 311 123" fill="none" xmlns="http://www.w3.org/2000/svg">
<rect x="17.5201" width="183.971" height="98.556" rx="5.84036" fill="white"/>
<g filter="url(#filter0_d_1_376)">
<rect x="11.6794" y="5.84042" width="195.652" height="98.556" rx="5.84036" fill="white"/>
</g>
<g filter="url(#filter1_d_1_376)">
<rect x="5.8407" y="11.6808" width="207.333" height="98.556" rx="5.84036" fill="white"/>
</g>
<g filter="url(#filter2_d_1_376)">
<rect y="17.5211" width="219.013" height="105.126" rx="5.84036" fill="white" shape-rendering="crispEdges"/>
<circle cx="32.122" cy="49.6431" r="14.6009" fill="#419488"/>
<g clip-path="url(#clip0_1_376)">
<path d="M32.9426 50.0505C33.7632 50.0505 34.4202 50.3774 34.9954 51.0312C35.3238 51.4395 35.4888 52.0119 35.4888 52.5843C35.4888 53.1567 35.4888 53.8106 35.407 54.4644C35.407 54.5471 35.407 54.6285 35.3252 54.6285C34.8318 54.7913 34.3397 54.9554 33.8463 55.0368C33.2711 55.1182 32.6142 55.1182 32.039 55.1182C31.0535 55.1182 30.1499 54.8727 29.1644 54.6272C29.0826 54.6272 28.9177 54.5458 28.8359 54.5458C28.9177 53.7292 28.8359 52.9113 28.9177 52.176C28.9995 51.5222 29.328 50.9498 29.9032 50.5415C30.3966 50.2146 30.8886 50.0505 31.4638 50.0505L32.9426 50.0505ZM29.8227 48.0891C29.8227 48.7429 30.0681 49.2326 30.5615 49.7236C30.3979 49.8063 30.3148 49.8063 30.1512 49.8877C29.3306 50.296 28.7554 50.9498 28.5087 51.9305C28.427 52.1747 28.427 52.4202 28.427 52.6657V53.1568C28.1803 53.1568 27.8518 53.0754 27.6051 53.0754C26.9481 52.994 26.2911 52.8312 25.6342 52.6671C25.5524 52.5843 25.5524 52.5843 25.5524 52.5029V50.4601C25.5524 49.4794 26.2911 48.5801 27.1948 48.2532C27.4415 48.1704 27.77 48.089 28.0985 48.089L29.8227 48.0891ZM36.1457 48.0904C37.213 48.0904 37.9517 48.5801 38.4451 49.5608C38.6101 49.8877 38.6918 50.296 38.6918 50.6229L38.692 51.5015C38.692 51.5587 38.6921 51.6151 38.6921 51.6703L38.6925 51.9849C38.6927 52.0834 38.6929 52.1747 38.6932 52.2561L38.6929 52.2912C38.6915 52.3604 38.6815 52.4202 38.6114 52.4202C38.118 52.6657 37.5441 52.8298 37.0507 52.9112C36.6391 52.994 36.3106 52.994 35.9004 53.0753V52.5029C35.9004 51.7677 35.655 51.1139 35.1616 50.5415C34.8331 50.2146 34.4215 49.9704 34.0112 49.8063C34.0112 49.8063 33.9281 49.7249 33.8463 49.7249C34.3384 49.3166 34.5851 48.7442 34.5851 48.0904L36.1457 48.0904ZM32.2039 46.1276C33.1893 46.1276 34.093 46.9455 34.093 48.0077C34.1748 49.0698 33.2711 49.9691 32.2039 49.9691C31.1366 49.9691 30.3161 49.0698 30.233 48.0077C30.233 46.9455 31.1366 46.1276 32.2039 46.1276ZM35.4083 44.1675C36.3938 44.1675 37.2974 44.9854 37.2974 46.0476C37.3792 47.1097 36.4755 48.009 35.4083 48.009C35.0798 48.009 34.8331 47.9263 34.5864 47.8449C34.5033 47.0269 34.093 46.3731 33.4374 46.0476C33.4374 44.9854 34.3411 44.1675 35.4083 44.1675H35.4083ZM28.8372 44.2476C29.8227 44.2476 30.7264 45.0655 30.7264 46.1276V46.209C30.233 46.5359 29.9045 47.1083 29.8227 47.7621C29.576 47.9263 29.1657 48.0077 28.8372 48.0077C27.77 48.0077 26.8663 47.1083 26.8663 46.1276C26.8663 45.0655 27.77 44.2476 28.8372 44.2476Z" fill="white"/>
</g>
<path d="M55.1695 41.6796L56.0689 41.8533C56.7741 41.9862 57.5918 42.2417 57.5918 42.9981C57.5918 43.7135 56.8866 44.1121 56.0076 44.1121C54.9855 44.1121 54.3314 43.6011 54.1065 42.5892H52.829C52.9823 44.2143 54.1883 45.175 55.9463 45.175C57.4078 45.175 58.8898 44.4085 58.8898 42.9163C58.8898 41.4241 57.6531 40.9539 56.3551 40.6984L55.4454 40.5247C54.8118 40.402 54.3416 40.1158 54.3416 39.5435C54.3416 38.8178 55.1899 38.5623 55.7623 38.5623C56.488 38.5623 57.2647 38.8178 57.4794 39.707H58.7365C58.4401 38.1637 57.2954 37.4994 55.8338 37.4994C54.4745 37.4994 53.0334 38.1944 53.0334 39.5844C53.0334 40.8415 54.0043 41.4445 55.1695 41.6796ZM63.2088 44.2858V45.0422H64.4251V39.5435H63.2088V42.4768C63.2088 43.4682 62.8818 44.1836 61.9721 44.1836C61.0625 44.1836 60.9603 43.458 60.9603 42.7119V39.5435H59.744V43.0083C59.744 44.3165 60.2755 45.175 61.5837 45.175C62.3298 45.175 62.892 44.8582 63.2088 44.2858ZM67.0105 39.5435H65.7942V46.8308H67.0105V44.3165C67.3375 44.8582 67.9099 45.175 68.6458 45.175C69.9847 45.175 71.0068 44.061 71.0068 42.2928C71.0068 40.5349 69.9847 39.4208 68.6458 39.4208C67.9099 39.4208 67.3375 39.7377 67.0105 40.2794V39.5435ZM68.38 44.1836C67.5828 44.1836 66.9594 43.5602 66.9594 42.2928C66.9594 41.0255 67.5828 40.4122 68.38 40.4122C69.2284 40.4122 69.7394 41.1379 69.7394 42.2928C69.7394 43.458 69.2284 44.1836 68.38 44.1836ZM73.2187 39.5435H72.0025V46.8308H73.2187V44.3165C73.5458 44.8582 74.1181 45.175 74.854 45.175C76.1929 45.175 77.215 44.061 77.215 42.2928C77.215 40.5349 76.1929 39.4208 74.854 39.4208C74.1181 39.4208 73.5458 39.7377 73.2187 40.2794V39.5435ZM74.5883 44.1836C73.7911 44.1836 73.1676 43.5602 73.1676 42.2928C73.1676 41.0255 73.7911 40.4122 74.5883 40.4122C75.4366 40.4122 75.9476 41.1379 75.9476 42.2928C75.9476 43.458 75.4366 44.1836 74.5883 44.1836ZM83.3196 42.303C83.3196 40.3202 81.95 39.4208 80.6111 39.4208C79.2722 39.4208 77.9026 40.3202 77.9026 42.303C77.9026 44.2858 79.2722 45.175 80.6111 45.175C81.95 45.175 83.3196 44.2858 83.3196 42.303ZM80.6111 44.1836C79.8446 44.1836 79.1598 43.5704 79.1598 42.303C79.1598 41.0357 79.8446 40.4122 80.6111 40.4122C81.3777 40.4122 82.0624 41.0357 82.0624 42.303C82.0624 43.5704 81.3777 44.1836 80.6111 44.1836ZM87.324 40.7802V39.5537C87.232 39.5435 87.0991 39.5333 87.0071 39.5333C86.3428 39.5435 85.8113 39.9114 85.5149 40.5247V39.5435H84.3191V45.0422H85.5354V42.16C85.5354 41.0561 85.9749 40.7495 86.7414 40.7495C86.9254 40.7495 87.1196 40.7597 87.324 40.7802ZM88.2657 38.0921V39.5435H87.4481V40.4225H88.2657V43.6011C88.2657 44.7253 88.5008 45.0422 89.6762 45.0422H90.5756V44.1121H90.1361C89.6148 44.1121 89.482 43.9792 89.482 43.4171V40.4225H90.5858V39.5435H89.482V38.0921H88.2657Z" fill="#333333"/>
<rect x="52.5632" y="53.8825" width="116.077" height="5.84036" rx="2.92018" fill="#D5DCE1"/>
<circle cx="200.032" cy="36.5023" r="1.46009" fill="#333333"/>
<circle cx="200.032" cy="40.8825" r="1.46009" fill="#333333"/>
<circle cx="200.032" cy="45.2628" r="1.46009" fill="#333333"/>
<path d="M17.5211 75.9247H201.492" stroke="#E0E0E0" stroke-width="0.730045"/>
<rect x="17.5211" y="87.6054" width="17.5211" height="17.5211" rx="1.94679" fill="#F2F4F6"/>
<path opacity="0.5" fill-rule="evenodd" clip-rule="evenodd" d="M23.238 89.9858C23.238 89.4995 23.7086 89.1519 24.1735 89.2949L32.1251 91.7415C32.4284 91.8349 32.6353 92.1151 32.6353 92.4325V100.317C32.6353 100.803 32.1647 101.151 31.6999 101.008L23.7483 98.5614C23.445 98.4681 23.238 98.1878 23.238 97.8705V89.9858Z" fill="#C2E6FF"/>
<path opacity="0.8" fill-rule="evenodd" clip-rule="evenodd" d="M21.4308 91.3593C21.4308 90.8729 21.9014 90.5254 22.3662 90.6684L30.3178 93.115C30.6211 93.2083 30.8281 93.4886 30.8281 93.8059V101.691C30.8281 102.177 30.3575 102.525 29.8926 102.382L21.9411 99.9349C21.6378 99.8415 21.4308 99.5613 21.4308 99.244V91.3593Z" fill="#78C8FF"/>
<path fill-rule="evenodd" clip-rule="evenodd" d="M19.6237 92.7389C19.6237 92.2507 20.0975 91.9029 20.5633 92.0493L24.2861 93.2193L28.5066 94.4905C28.8119 94.5825 29.021 94.8638 29.021 95.1827V99.3124V103.058C29.021 103.546 28.5471 103.894 28.0814 103.748L24.2861 102.555L20.1381 101.306C19.8327 101.214 19.6237 100.933 19.6237 100.614V96.6697V92.7389Z" fill="#0098FF"/>
<path fill-rule="evenodd" clip-rule="evenodd" d="M24.4762 95.0022C24.4003 94.9579 24.3085 94.952 24.2326 94.9865L22.0057 95.9999C21.9655 96.0182 21.9402 96.0563 21.9392 96.0998C21.9383 96.1433 21.9619 96.1855 22.0011 96.2104L24.0486 97.5141C24.0858 97.5381 24.1321 97.5427 24.1709 97.5264L26.6674 96.4998C26.7098 96.4822 26.7368 96.4429 26.7376 96.3978C26.7383 96.3526 26.7127 96.3091 26.671 96.2849L24.4762 95.0022ZM21.6158 96.6029C21.6558 96.584 21.7049 96.5878 21.7442 96.613L23.783 97.9103C23.8213 97.9346 23.8448 97.9756 23.8447 98.0182V100.366C23.8441 100.409 23.8192 100.448 23.7793 100.466C23.7394 100.485 23.6906 100.481 23.6515 100.456L21.6749 99.1995C21.598 99.1506 21.551 99.0685 21.551 98.9831V96.7044C21.5511 96.6606 21.5758 96.6219 21.6158 96.6029ZM26.9733 96.9168C27.0127 96.9005 27.0596 96.9055 27.0972 96.93C27.1348 96.9545 27.1577 96.995 27.1578 97.037V99.3332C27.1578 99.4251 27.1033 99.5056 27.0171 99.5412L24.5389 100.561C24.4995 100.578 24.4524 100.573 24.4147 100.548C24.3771 100.524 24.3542 100.483 24.3544 100.441V98.0701C24.3546 98.0242 24.3818 97.9842 24.4247 97.9663L26.9733 96.9168Z" fill="white"/>
<rect x="40.8826" y="87.6054" width="17.5211" height="17.5211" rx="1.94679" fill="#F2F4F6"/>
<path d="M45.1534 98.9857H45.9564V97.4235H47.5625V96.6423H45.9564V95.0727H45.1534V96.6423H43.54V97.4235H45.1534V98.9857ZM49.2032 98.9857H50.0719V93.6929H49.4295C49.1594 94.2697 48.7871 94.3354 48.0205 94.3573V94.9559H49.2032V98.9857ZM54.7402 94.9559C54.7402 94.1675 54.032 93.598 52.9297 93.598C51.82 93.598 51.1192 94.1675 51.1192 94.9559C51.1192 95.4085 51.3309 95.8977 51.7981 96.1605C51.1703 96.4744 50.9585 96.9854 50.9585 97.4819C50.9585 98.5258 51.82 99.0807 52.9297 99.0807C54.0393 99.0807 54.9008 98.5258 54.9008 97.4819C54.9008 96.9854 54.6891 96.4817 54.0612 96.1605C54.5431 95.8758 54.7402 95.4085 54.7402 94.9559ZM52.9297 94.2624C53.5064 94.2624 53.8787 94.5617 53.8787 95.0654C53.8787 95.5691 53.5064 95.905 52.9297 95.905C52.3602 95.905 51.9733 95.5691 51.9733 95.0654C51.9733 94.5617 52.3602 94.2624 52.9297 94.2624ZM51.8638 97.4527C51.8638 96.8613 52.2799 96.4963 52.9297 96.4963C53.5794 96.4963 53.9955 96.8613 53.9955 97.4527C53.9955 98.0513 53.5794 98.409 52.9297 98.409C52.2799 98.409 51.8638 98.0513 51.8638 97.4527Z" fill="#0098FF"/>
<path fill-rule="evenodd" clip-rule="evenodd" d="M180.219 94.0389C180.219 95.4753 179.054 96.6397 177.618 96.6397C176.181 96.6397 175.017 95.4753 175.017 94.0389C175.017 92.6026 176.181 91.4381 177.618 91.4381C179.054 91.4381 180.219 92.6026 180.219 94.0389ZM180.677 95.566C180.916 95.0924 181.04 94.5693 181.04 94.0389C181.039 93.5083 180.914 92.9853 180.674 92.5119C180.622 92.4055 180.644 92.2775 180.729 92.1948C181.21 91.7119 181.864 91.4397 182.546 91.4381C183.982 91.4381 185.146 92.6026 185.146 94.0389C185.146 95.4753 183.982 96.6397 182.546 96.6397C181.865 96.6374 181.212 96.3653 180.732 95.883C180.647 95.8003 180.624 95.6724 180.677 95.566ZM181.244 97.1287C181.663 96.9863 182.103 96.9136 182.546 96.9135C184.812 96.9159 186.65 98.753 186.652 101.02C186.652 101.171 186.529 101.294 186.378 101.294H182.819C182.668 101.294 182.546 101.171 182.546 101.02C182.545 99.7323 182.038 98.4965 181.135 97.5793C181.069 97.5118 181.042 97.4152 181.065 97.3237C181.087 97.2322 181.155 97.1585 181.244 97.1287ZM177.618 96.9135C179.886 96.9135 181.724 98.752 181.724 101.02C181.724 101.171 181.602 101.294 181.45 101.294H173.785C173.634 101.294 173.511 101.171 173.511 101.02C173.511 98.752 175.35 96.9135 177.618 96.9135Z" fill="#CACACA"/>
<path d="M195.712 97.1649C195.712 97.8731 195.252 98.2892 194.668 98.2892C193.974 98.2892 193.639 97.8585 193.566 97.2452H192.726C192.792 98.1578 193.42 98.9608 194.653 98.9608C195.705 98.9608 196.61 98.333 196.61 97.1503C196.61 95.9604 195.77 95.3398 194.865 95.3398C194.391 95.3398 194.026 95.4639 193.77 95.6683L193.938 94.3397H196.391V93.5731H193.222L192.872 96.5152L193.69 96.559C193.799 96.2524 194.157 96.0042 194.646 96.0042C195.172 96.0042 195.712 96.3765 195.712 97.1649ZM198.074 95.9531C198.088 94.8653 198.512 94.1425 199.227 94.1425C199.702 94.1425 200.059 94.3908 200.118 94.9018H201.001C200.928 94.1937 200.403 93.4782 199.293 93.4782C197.745 93.4782 197.19 94.8507 197.19 96.3765C197.19 97.9242 197.804 98.9608 199.176 98.9608C200.315 98.9608 201.103 98.2089 201.103 97.1503C201.103 96.048 200.322 95.3471 199.344 95.3471C198.738 95.3471 198.307 95.6172 198.074 95.9531ZM199.169 98.2892C198.57 98.2892 198.139 97.8658 198.139 97.1649C198.139 96.4714 198.577 96.0334 199.176 96.0334C199.775 96.0334 200.205 96.4714 200.205 97.1649C200.205 97.8658 199.775 98.2892 199.169 98.2892Z" fill="#333333"/>
</g>
<g filter="url(#filter3_d_1_376)">
<rect x="205.874" y="35.0422" width="105.126" height="46.7229" rx="5.84036" fill="white" shape-rendering="crispEdges"/>
<path fill-rule="evenodd" clip-rule="evenodd" d="M223.119 46.0046C221.831 44.5883 219.696 43.0912 217.555 43.1214C215.413 43.0907 213.278 44.5888 211.991 46.0046C211.625 46.4131 211.625 47.0309 211.991 47.4394C213.263 48.8406 215.368 50.3245 217.476 50.3245H217.626C219.742 50.3245 221.846 48.8406 223.12 47.4389C223.485 47.0302 223.484 46.4125 223.119 46.0046ZM215.316 46.723C215.316 45.4865 216.318 44.4842 217.555 44.4842C218.791 44.4842 219.794 45.4865 219.794 46.723C219.794 47.9594 218.791 48.9618 217.555 48.9618C216.318 48.9618 215.316 47.9594 215.316 46.723ZM217.555 47.6963C218.092 47.6963 218.528 47.2605 218.528 46.723C218.528 46.1854 218.092 45.7496 217.555 45.7496C217.017 45.7496 216.581 46.1854 216.581 46.723C216.581 47.2605 217.017 47.6963 217.555 47.6963Z" fill="#666666"/>
<path d="M232.826 48.8826H233.772L235.524 43.3459V48.8826H236.418V42.5312H234.92L233.299 47.8226L231.678 42.5312H230.18V48.8826H231.074V43.3459L232.826 48.8826ZM237.52 47.6386C237.52 48.5059 238.256 48.9965 239.14 48.9965C239.973 48.9965 240.463 48.7161 240.752 48.2343C240.761 48.5147 240.787 48.7074 240.814 48.8826H241.62C241.532 48.4358 241.488 47.8927 241.497 47.1042L241.506 46.0179C241.514 44.6951 240.927 44.0731 239.631 44.0731C238.711 44.0731 237.818 44.6425 237.739 45.6587H238.562C238.597 45.0805 238.983 44.7213 239.64 44.7213C240.227 44.7213 240.708 45.0104 240.708 45.869V45.9829C238.772 46.2019 237.52 46.526 237.52 47.6386ZM240.77 46.6136V46.9115C240.77 48.0241 240.06 48.3657 239.316 48.3657C238.746 48.3657 238.404 48.0679 238.404 47.6211C238.404 46.9728 239.324 46.7625 240.77 46.6136ZM243.491 44.879V44.1694H242.694V48.8826H243.491V46.3245C243.491 45.3171 243.964 44.7827 244.735 44.7827C245.646 44.7827 245.769 45.4134 245.769 46.1406V48.8826H246.566V45.904C246.566 44.8265 246.154 44.0906 245.015 44.0906C244.218 44.0906 243.762 44.4322 243.491 44.879ZM247.478 47.6386C247.478 48.5059 248.214 48.9965 249.099 48.9965C249.931 48.9965 250.421 48.7161 250.711 48.2343C250.719 48.5147 250.746 48.7074 250.772 48.8826H251.578C251.49 48.4358 251.446 47.8927 251.455 47.1042L251.464 46.0179C251.473 44.6951 250.886 44.0731 249.589 44.0731C248.669 44.0731 247.776 44.6425 247.697 45.6587H248.52C248.555 45.0805 248.941 44.7213 249.598 44.7213C250.185 44.7213 250.667 45.0104 250.667 45.869V45.9829C248.731 46.2019 247.478 46.526 247.478 47.6386ZM250.728 46.6136V46.9115C250.728 48.0241 250.018 48.3657 249.274 48.3657C248.704 48.3657 248.363 48.0679 248.363 47.6211C248.363 46.9728 249.283 46.7625 250.728 46.6136ZM255.823 44.1694V44.9141C255.534 44.4147 255.078 44.0906 254.325 44.0906C253.283 44.0906 252.328 44.9404 252.328 46.4472C252.328 47.9627 253.283 48.8038 254.325 48.8038C255.078 48.8038 255.534 48.4884 255.823 47.989V48.4358C255.823 49.0753 255.692 49.2943 255.517 49.4783C255.306 49.7061 254.982 49.8287 254.553 49.8287C253.817 49.8287 253.563 49.5046 253.458 49.0841H252.608C252.757 50.039 253.475 50.5296 254.544 50.5296C255.245 50.5296 255.832 50.3018 256.174 49.9076C256.445 49.6097 256.62 49.2155 256.62 48.2518V44.1694H255.823ZM254.527 44.7739C255.236 44.7739 255.858 45.2557 255.858 46.4472C255.858 47.6474 255.236 48.1292 254.527 48.1292C253.747 48.1292 253.195 47.5247 253.195 46.4472C253.195 45.3784 253.747 44.7739 254.527 44.7739ZM258.413 46.7888H262.04C262.145 45.2995 261.278 44.0906 259.841 44.0906C258.554 44.0906 257.555 45.0455 257.555 46.5348C257.555 47.9277 258.378 48.9965 259.868 48.9965C261.015 48.9965 261.76 48.3307 261.979 47.516H261.156C260.954 47.9803 260.569 48.2956 259.868 48.2956C259.167 48.2956 258.448 47.8051 258.413 46.7888ZM258.422 46.1055C258.492 45.1594 259.132 44.7739 259.841 44.7739C260.682 44.7739 261.182 45.4397 261.199 46.1055H258.422ZM265.276 42.9868V44.1694H264.531V44.8089H265.276V47.6999C265.276 48.6811 265.486 48.8826 266.389 48.8826H266.967V48.2168H266.564C266.108 48.2168 266.073 48.0942 266.073 47.6036V44.8089H266.967V44.1694H266.073V42.9868H265.276ZM268.389 46.7888H272.016C272.121 45.2995 271.254 44.0906 269.817 44.0906C268.529 44.0906 267.53 45.0455 267.53 46.5348C267.53 47.9277 268.354 48.9965 269.843 48.9965C270.991 48.9965 271.735 48.3307 271.954 47.516H271.131C270.929 47.9803 270.544 48.2956 269.843 48.2956C269.142 48.2956 268.424 47.8051 268.389 46.7888ZM268.398 46.1055C268.468 45.1594 269.107 44.7739 269.817 44.7739C270.658 44.7739 271.157 45.4397 271.175 46.1055H268.398ZM272.622 47.6386C272.622 48.5059 273.358 48.9965 274.242 48.9965C275.075 48.9965 275.565 48.7161 275.854 48.2343C275.863 48.5147 275.889 48.7074 275.916 48.8826H276.722C276.634 48.4358 276.59 47.8927 276.599 47.1042L276.608 46.0179C276.616 44.6951 276.03 44.0731 274.733 44.0731C273.813 44.0731 272.92 44.6425 272.841 45.6587H273.664C273.699 45.0805 274.085 44.7213 274.742 44.7213C275.329 44.7213 275.811 45.0104 275.811 45.869V45.9829C273.874 46.2019 272.622 46.526 272.622 47.6386ZM275.872 46.6136V46.9115C275.872 48.0241 275.162 48.3657 274.418 48.3657C273.848 48.3657 273.506 48.0679 273.506 47.6211C273.506 46.9728 274.426 46.7625 275.872 46.6136ZM278.593 48.8826V46.3245C278.593 45.3171 279.048 44.7827 279.732 44.7827C280.599 44.7827 280.739 45.4134 280.739 46.1406V48.8826H281.536V46.3245C281.536 45.3171 281.992 44.7827 282.675 44.7827C283.543 44.7827 283.683 45.4134 283.683 46.1406V48.8826H284.48V45.904C284.48 44.8265 284.051 44.0906 282.956 44.0906C282.299 44.0906 281.747 44.3446 281.37 44.9228C281.16 44.406 280.73 44.0906 280.012 44.0906C279.302 44.0906 278.864 44.4322 278.593 44.879V44.1694H277.796V48.8826H278.593Z" fill="#666666"/>
<path d="M205.874 58.4037H311" stroke="#E0E0E0" stroke-width="0.730045"/>
<path fill-rule="evenodd" clip-rule="evenodd" d="M217.555 75.9246C220.78 75.9246 223.395 73.3098 223.395 70.0843C223.395 66.8587 220.78 64.2439 217.555 64.2439C214.329 64.2439 211.714 66.8587 211.714 70.0843C211.718 73.3083 214.331 75.921 217.555 75.9246ZM215.041 68.289C214.909 68.1615 214.856 67.9727 214.902 67.7951C214.949 67.6176 215.087 67.4789 215.265 67.4324C215.443 67.386 215.631 67.4389 215.759 67.5709L217.465 69.2768C217.514 69.3262 217.595 69.3262 217.644 69.2768L219.35 67.5709C219.477 67.4389 219.666 67.386 219.844 67.4324C220.021 67.4789 220.16 67.6176 220.207 67.7951C220.253 67.9727 220.2 68.1615 220.068 68.289L218.362 69.9949C218.313 70.0445 218.313 70.1247 218.362 70.1742L220.068 71.8801C220.2 72.0076 220.253 72.1964 220.207 72.374C220.16 72.5516 220.021 72.6902 219.844 72.7367C219.666 72.7832 219.477 72.7302 219.35 72.5982L217.644 70.8923C217.595 70.8429 217.514 70.8429 217.465 70.8923L215.759 72.5982C215.56 72.7907 215.243 72.7879 215.047 72.592C214.851 72.3961 214.848 72.0794 215.041 71.8801L216.747 70.1742C216.796 70.1247 216.796 70.0445 216.747 69.9949L215.041 68.289Z" fill="#666666"/>
<path d="M232.022 65.8926H230.287V72.244H232.022C234.037 72.244 235.482 71.4906 235.482 69.0639C235.482 66.646 234.037 65.8926 232.022 65.8926ZM231.995 66.646C233.31 66.646 234.571 66.9089 234.571 69.0639C234.571 71.2278 233.31 71.4906 231.995 71.4906H231.181V66.646H231.995ZM237.098 70.1503H240.725C240.83 68.661 239.963 67.452 238.526 67.452C237.238 67.452 236.24 68.4069 236.24 69.8962C236.24 71.2891 237.063 72.3579 238.552 72.3579C239.7 72.3579 240.445 71.6921 240.664 70.8774H239.84C239.639 71.3417 239.253 71.6571 238.552 71.6571C237.852 71.6571 237.133 71.1665 237.098 70.1503ZM237.107 69.4669C237.177 68.5208 237.817 68.1353 238.526 68.1353C239.367 68.1353 239.867 68.8011 239.884 69.4669H237.107ZM242.451 72.244V65.8926H241.654V72.244H242.451ZM244.25 70.1503H247.877C247.982 68.661 247.115 67.452 245.678 67.452C244.391 67.452 243.392 68.4069 243.392 69.8962C243.392 71.2891 244.215 72.3579 245.705 72.3579C246.852 72.3579 247.597 71.6921 247.816 70.8774H246.992C246.791 71.3417 246.405 71.6571 245.705 71.6571C245.004 71.6571 244.285 71.1665 244.25 70.1503ZM244.259 69.4669C244.329 68.5208 244.969 68.1353 245.678 68.1353C246.519 68.1353 247.019 68.8011 247.036 69.4669H244.259ZM249.034 66.3482V67.5308H248.289V68.1704H249.034V71.0613C249.034 72.0425 249.244 72.244 250.147 72.244H250.725V71.5782H250.322C249.866 71.5782 249.831 71.4556 249.831 70.965V68.1704H250.725V67.5308H249.831V66.3482H249.034ZM252.147 70.1503H255.774C255.879 68.661 255.012 67.452 253.575 67.452C252.287 67.452 251.288 68.4069 251.288 69.8962C251.288 71.2891 252.112 72.3579 253.601 72.3579C254.749 72.3579 255.493 71.6921 255.712 70.8774H254.889C254.687 71.3417 254.302 71.6571 253.601 71.6571C252.9 71.6571 252.182 71.1665 252.147 70.1503ZM252.156 69.4669C252.226 68.5208 252.865 68.1353 253.575 68.1353C254.416 68.1353 254.915 68.8011 254.933 69.4669H252.156ZM261.699 71.5695V72.244H262.496V67.5308H261.699V70.124C261.699 71.1314 261.252 71.6658 260.499 71.6658C259.631 71.6658 259.509 71.0351 259.509 70.3079V67.5308H258.712V70.5445C258.712 71.622 259.123 72.3579 260.218 72.3579C260.998 72.3579 261.427 72.0162 261.699 71.5695ZM266.459 68.9063H267.291C267.142 68.0127 266.45 67.4432 265.434 67.4432C264.392 67.4432 263.551 67.9251 263.551 68.7573C263.551 69.6334 264.251 69.9312 264.891 70.0626L265.592 70.2028C266.1 70.3079 266.547 70.5094 266.547 70.9825C266.547 71.4205 266.056 71.6833 265.452 71.6833C264.751 71.6833 264.374 71.3242 264.251 70.7197H263.41C263.498 71.5432 264.199 72.3579 265.434 72.3579C266.512 72.3579 267.353 71.8235 267.353 70.8949C267.353 69.9838 266.599 69.6597 265.741 69.4932L265.075 69.3618C264.619 69.2742 264.357 69.099 264.357 68.7223C264.357 68.293 264.882 68.1266 265.346 68.1266C265.898 68.1266 266.336 68.3456 266.459 68.9063ZM268.898 70.1503H272.525C272.63 68.661 271.763 67.452 270.326 67.452C269.038 67.452 268.039 68.4069 268.039 69.8962C268.039 71.2891 268.863 72.3579 270.352 72.3579C271.5 72.3579 272.244 71.6921 272.463 70.8774H271.64C271.438 71.3417 271.053 71.6571 270.352 71.6571C269.651 71.6571 268.933 71.1665 268.898 70.1503ZM268.907 69.4669C268.977 68.5208 269.616 68.1353 270.326 68.1353C271.167 68.1353 271.666 68.8011 271.684 69.4669H268.907ZM275.802 68.3631V67.5133C275.714 67.5046 275.644 67.5046 275.565 67.5046C274.952 67.5221 274.47 67.8199 274.234 68.3543V67.5308H273.454V72.244H274.251V69.7735C274.251 68.7398 274.619 68.3281 275.355 68.3281C275.486 68.3281 275.635 68.3456 275.802 68.3631Z" fill="#666666"/>
</g>
<defs>
<filter id="filter0_d_1_376" x="5.83909" y="-1.46002" width="207.333" height="110.237" filterUnits="userSpaceOnUse" color-interpolation-filters="sRGB">
<feFlood flood-opacity="0" result="BackgroundImageFix"/>
<feColorMatrix in="SourceAlpha" type="matrix" values="0 0 0 0 0 0 0 0 0 0 0 0 0 0 0 0 0 0 127 0" result="hardAlpha"/>
<feOffset dy="-1.46009"/>
<feGaussianBlur stdDeviation="2.92018"/>
<feComposite in2="hardAlpha" operator="out"/>
<feColorMatrix type="matrix" values="0 0 0 0 0 0 0 0 0 0 0 0 0 0 0 0 0 0 0.05 0"/>
<feBlend mode="normal" in2="BackgroundImageFix" result="effect1_dropShadow_1_376"/>
<feBlend mode="normal" in="SourceGraphic" in2="effect1_dropShadow_1_376" result="shape"/>
</filter>
<filter id="filter1_d_1_376" x="0.000340939" y="4.38031" width="219.013" height="110.237" filterUnits="userSpaceOnUse" color-interpolation-filters="sRGB">
<feFlood flood-opacity="0" result="BackgroundImageFix"/>
<feColorMatrix in="SourceAlpha" type="matrix" values="0 0 0 0 0 0 0 0 0 0 0 0 0 0 0 0 0 0 127 0" result="hardAlpha"/>
<feOffset dy="-1.46009"/>
<feGaussianBlur stdDeviation="2.92018"/>
<feComposite in2="hardAlpha" operator="out"/>
<feColorMatrix type="matrix" values="0 0 0 0 0 0 0 0 0 0 0 0 0 0 0 0 0 0 0.05 0"/>
<feBlend mode="normal" in2="BackgroundImageFix" result="effect1_dropShadow_1_376"/>
<feBlend mode="normal" in="SourceGraphic" in2="effect1_dropShadow_1_376" result="shape"/>
</filter>
<filter id="filter2_d_1_376" x="-5.84036" y="10.2207" width="230.694" height="116.807" filterUnits="userSpaceOnUse" color-interpolation-filters="sRGB">
<feFlood flood-opacity="0" result="BackgroundImageFix"/>
<feColorMatrix in="SourceAlpha" type="matrix" values="0 0 0 0 0 0 0 0 0 0 0 0 0 0 0 0 0 0 127 0" result="hardAlpha"/>
<feOffset dy="-1.46009"/>
<feGaussianBlur stdDeviation="2.92018"/>
<feComposite in2="hardAlpha" operator="out"/>
<feColorMatrix type="matrix" values="0 0 0 0 0 0 0 0 0 0 0 0 0 0 0 0 0 0 0.05 0"/>
<feBlend mode="normal" in2="BackgroundImageFix" result="effect1_dropShadow_1_376"/>
<feBlend mode="normal" in="SourceGraphic" in2="effect1_dropShadow_1_376" result="shape"/>
</filter>
<filter id="filter3_d_1_376" x="183.973" y="20.4413" width="148.929" height="90.5256" filterUnits="userSpaceOnUse" color-interpolation-filters="sRGB">
<feFlood flood-opacity="0" result="BackgroundImageFix"/>
<feColorMatrix in="SourceAlpha" type="matrix" values="0 0 0 0 0 0 0 0 0 0 0 0 0 0 0 0 0 0 127 0" result="hardAlpha"/>
<feOffset dy="7.30045"/>
<feGaussianBlur stdDeviation="10.9507"/>
<feComposite in2="hardAlpha" operator="out"/>
<feColorMatrix type="matrix" values="0 0 0 0 0.0966667 0 0 0 0 0.0985417 0 0 0 0 0.103333 0 0 0 0.15 0"/>
<feBlend mode="normal" in2="BackgroundImageFix" result="effect1_dropShadow_1_376"/>
<feBlend mode="normal" in="SourceGraphic" in2="effect1_dropShadow_1_376" result="shape"/>
</filter>
<clipPath id="clip0_1_376">
<rect width="13.1408" height="13.1408" fill="white" transform="translate(25.5524 43.0724)"/>
</clipPath>
</defs>
</svg>
