<svg width="14" height="14" viewBox="0 0 14 14" fill="none" xmlns="http://www.w3.org/2000/svg">
<path fill-rule="evenodd" clip-rule="evenodd" d="M8.38578 3.66724C8.23375 3.51797 8.15226 3.32582 8.15226 3.115C8.15226 2.90412 8.23375 2.71203 8.36564 2.58382C8.44609 2.49352 8.54581 2.42527 8.66003 2.38397C8.75274 2.35042 8.84955 2.33333 8.94809 2.33333C9.04665 2.33333 9.14346 2.35042 9.23616 2.38397C9.35038 2.42527 9.4501 2.49352 9.51016 2.56247L13.7665 6.73599C13.9191 6.88585 14 7.0793 14 7.29167C14 7.50403 13.9191 7.69749 13.7665 7.84734L9.51042 12.0206C9.35838 12.17 9.16278 12.25 8.94809 12.25C8.73341 12.25 8.53781 12.17 8.38578 12.0206C8.23375 11.8713 8.15226 11.6792 8.15226 11.4684C8.15226 11.2575 8.23375 11.0654 8.38578 10.9161L11.2767 8.0767L0.802784 8.0767C0.584967 8.0767 0.386633 7.99774 0.233508 7.84734C0.0803833 7.69695 0 7.50217 0 7.28827C0 7.07741 0.0814915 6.8853 0.233508 6.73599C0.386633 6.58559 0.584967 6.50662 0.802784 6.50662L11.2767 6.50662L8.38578 3.66724Z" fill="#F2357A"/>
</svg>
