<svg width="40" height="40" viewBox="0 0 40 40" fill="none" xmlns="http://www.w3.org/2000/svg">
<g clip-path="url(#clip0_1_523)">
<path fill-rule="evenodd" clip-rule="evenodd" d="M1.25 4.16667C1.94036 4.16667 2.5 3.60702 2.5 2.91667V1.25C2.5 0.559644 1.94036 0 1.25 0C0.559644 0 0 0.559644 0 1.25V2.91667C0 3.60702 0.559644 4.16667 1.25 4.16667ZM1.25 24.9997C1.94036 24.9997 2.5 24.44 2.5 23.7497V22.083C2.5 21.3927 1.94036 20.833 1.25 20.833C0.559644 20.833 0 21.3927 0 22.083V23.7497C0 24.44 0.559644 24.9997 1.25 24.9997ZM2.5 17.0837C2.5 17.774 1.94036 18.3337 1.25 18.3337C0.559644 18.3337 0 17.774 0 17.0837V15.417C0 14.7266 0.559644 14.167 1.25 14.167C1.94036 14.167 2.5 14.7266 2.5 15.417V17.0837ZM3.75 9.16699H2.5V7.91699C2.5 7.22664 1.94036 6.66699 1.25 6.66699C0.559644 6.66699 0 7.22664 0 7.91699V9.58366C0.00183533 10.7335 0.933501 11.6652 2.08333 11.667H3.75C4.44036 11.667 5 11.1073 5 10.417C5 9.72664 4.44036 9.16699 3.75 9.16699ZM8.75 9.16699H10.4167C11.107 9.16699 11.6667 9.72664 11.6667 10.417C11.6667 11.1073 11.107 11.667 10.4167 11.667H8.75C8.05964 11.667 7.5 11.1073 7.5 10.417C7.5 9.72664 8.05964 9.16699 8.75 9.16699ZM17.0846 9.16602H15.418C14.7276 9.16602 14.168 9.72566 14.168 10.416C14.168 11.1064 14.7276 11.666 15.418 11.666H17.0846C17.775 11.666 18.3346 11.1064 18.3346 10.416C18.3346 9.72566 17.775 9.16602 17.0846 9.16602ZM8.75 30H10.4167C11.107 30 11.6667 30.5596 11.6667 31.25C11.6667 31.9404 11.107 32.5 10.4167 32.5H8.75C8.05964 32.5 7.5 31.9404 7.5 31.25C7.5 30.5596 8.05964 30 8.75 30ZM17.0846 30H15.418C14.7276 30 14.168 30.5596 14.168 31.25C14.168 31.9404 14.7276 32.5 15.418 32.5H17.0846C17.775 32.5 18.3346 31.9404 18.3346 31.25C18.3346 30.5596 17.775 30 17.0846 30ZM2.5 30H3.75C4.44036 30 5 30.5596 5 31.25C5 31.9404 4.44036 32.5 3.75 32.5H2.08333C0.933501 32.4982 0.00183533 31.5665 0 30.4167V28.75C0 28.0596 0.559644 27.5 1.25 27.5C1.94036 27.5 2.5 28.0596 2.5 28.75V30Z" fill="url(#paint0_linear_1_523)"/>
<path fill-rule="evenodd" clip-rule="evenodd" d="M36.2527 2.08354H34.3428C34.2469 2.08354 34.1692 2.0058 34.1692 1.90991V0.694512C34.1692 0.310944 33.8582 0 33.4747 0C33.0911 0 32.7802 0.310944 32.7802 0.694512V3.99345C32.7802 4.28112 32.547 4.51433 32.2593 4.51433C31.9716 4.51433 31.7384 4.28112 31.7384 3.99345V2.43079C31.7384 2.23901 31.5829 2.08354 31.3911 2.08354H27.0504C26.9548 2.08354 26.8772 2.00622 26.8768 1.9106V0.694512C26.8768 0.310944 26.5659 0 26.1823 0C25.7987 0 25.4878 0.310944 25.4878 0.694512V3.99345C25.4878 4.28112 25.2546 4.51433 24.9669 4.51433C24.6792 4.51433 24.446 4.28112 24.446 3.99345V2.43079C24.446 2.23901 24.2905 2.08354 24.0988 2.08354H23.057C22.2899 2.08354 21.668 2.70542 21.668 3.47256V15.2793C21.668 16.0464 22.2899 16.6683 23.057 16.6683H36.2527C37.0199 16.6683 37.6418 16.0464 37.6418 15.2793V3.47256C37.6418 2.70542 37.0199 2.08354 36.2527 2.08354ZM35.9071 15.2796H23.4058C23.2141 15.2796 23.0586 15.1242 23.0586 14.9324V6.59823C23.0586 6.40645 23.2141 6.25098 23.4058 6.25098H35.9071C36.0989 6.25098 36.2543 6.40645 36.2543 6.59823V14.9324C36.2543 15.1242 36.0989 15.2796 35.9071 15.2796Z" fill="url(#paint1_linear_1_523)"/>
<path fill-rule="evenodd" clip-rule="evenodd" d="M36.2527 25.4175H34.3428C34.2469 25.4175 34.1692 25.3398 34.1692 25.2439V24.0285C34.1692 23.6449 33.8582 23.334 33.4747 23.334C33.0911 23.334 32.7802 23.6449 32.7802 24.0285V27.3274C32.7802 27.6151 32.547 27.8483 32.2593 27.8483C31.9716 27.8483 31.7384 27.6151 31.7384 27.3274V25.7648C31.7384 25.573 31.5829 25.4175 31.3911 25.4175H27.0504C26.9548 25.4175 26.8772 25.3402 26.8768 25.2446V24.0285C26.8768 23.6449 26.5659 23.334 26.1823 23.334C25.7987 23.334 25.4878 23.6449 25.4878 24.0285V27.3274C25.4878 27.6151 25.2546 27.8483 24.9669 27.8483C24.6792 27.8483 24.446 27.6151 24.446 27.3274V25.7648C24.446 25.573 24.2905 25.4175 24.0988 25.4175H23.057C22.2899 25.4175 21.668 26.0394 21.668 26.8065V38.6133C21.668 39.3804 22.2899 40.0023 23.057 40.0023H36.2527C37.0199 40.0023 37.6418 39.3804 37.6418 38.6133V26.8065C37.6418 26.0394 37.0199 25.4175 36.2527 25.4175ZM35.9071 38.6136H23.4058C23.2141 38.6136 23.0586 38.4581 23.0586 38.2664V29.9322C23.0586 29.7404 23.2141 29.585 23.4058 29.585H35.9071C36.0989 29.585 36.2543 29.7404 36.2543 29.9322V38.2664C36.2543 38.4581 36.0989 38.6136 35.9071 38.6136Z" fill="url(#paint2_linear_1_523)"/>
</g>
<defs>
<linearGradient id="paint0_linear_1_523" x1="18.3346" y1="36.6667" x2="-7.49783" y2="-6.66828" gradientUnits="userSpaceOnUse">
<stop stop-color="#F2357A"/>
<stop offset="1" stop-color="#FBE9F0"/>
</linearGradient>
<linearGradient id="paint1_linear_1_523" x1="14.8277" y1="1.66685" x2="29.4303" y2="-4.10509" gradientUnits="userSpaceOnUse">
<stop stop-color="#F2357A"/>
<stop offset="0.99952" stop-color="#9D66E1"/>
</linearGradient>
<linearGradient id="paint2_linear_1_523" x1="22.002" y1="23.5414" x2="35.5024" y2="41.0411" gradientUnits="userSpaceOnUse">
<stop stop-color="#F2357A"/>
<stop offset="1" stop-color="#FBE9F0"/>
</linearGradient>
<clipPath id="clip0_1_523">
<rect width="40" height="40" fill="white"/>
</clipPath>
</defs>
</svg>
