<svg width="40" height="40" viewBox="0 0 40 40" fill="none" xmlns="http://www.w3.org/2000/svg">
<path d="M12.9987 15.2704C12.9987 17.2606 13.7455 18.7512 15.2474 20.2459C14.7495 20.4977 14.4965 20.4977 13.9986 20.7454C11.5009 21.9883 9.75 23.9784 8.99906 26.9637C8.75012 27.707 8.75012 28.4543 8.75012 29.2016V30.6963C7.99918 30.6963 6.99926 30.4485 6.24832 30.4485C4.24852 30.2007 2.24871 29.7052 0.248945 29.2057C0 28.9538 0 28.9538 0 28.7061V22.4878C0 19.5025 2.24875 16.765 4.99949 15.77C5.75043 15.5181 6.75035 15.2704 7.75023 15.2704L12.9987 15.2704ZM9.99898 3.57715C12.9987 3.57715 15.7494 6.06687 15.7494 9.29992V9.54769C14.2475 10.5428 13.2476 12.2852 12.9987 14.2753C12.2477 14.7749 10.9989 15.0227 9.99898 15.0227C6.75035 15.0227 3.99961 12.2852 3.99961 9.29992C3.99961 6.06691 6.75035 3.57715 9.99898 3.57715Z" fill="#FBE9F0"/>
<path d="M12.9987 15.2704C12.9987 17.2606 13.7455 18.7512 15.2474 20.2459C14.7495 20.4977 14.4965 20.4977 13.9986 20.7454C11.5009 21.9883 9.75 23.9784 8.99906 26.9637C8.75012 27.707 8.75012 28.4543 8.75012 29.2016V30.6963C7.99918 30.6963 6.99926 30.4485 6.24832 30.4485C4.24852 30.2007 2.24871 29.7052 0.248945 29.2057C0 28.9538 0 28.9538 0 28.7061V22.4878C0 19.5025 2.24875 16.765 4.99949 15.77C5.75043 15.5181 6.75035 15.2704 7.75023 15.2704L12.9987 15.2704ZM9.99898 3.57715C12.9987 3.57715 15.7494 6.06687 15.7494 9.29992V9.54769C14.2475 10.5428 13.2476 12.2852 12.9987 14.2753C12.2477 14.7749 10.9989 15.0227 9.99898 15.0227C6.75035 15.0227 3.99961 12.2852 3.99961 9.29992C3.99961 6.06691 6.75035 3.57715 9.99898 3.57715Z" fill="url(#paint0_linear_1_550)"/>
<path d="M22.5007 21.2409C24.9984 21.2409 26.9982 22.2359 28.7491 24.2261C29.7489 25.469 30.2509 27.2114 30.2509 28.9538C30.2509 30.6962 30.2509 32.6864 30.002 34.6766C30.002 34.9284 30.002 35.1761 29.753 35.1761C28.2512 35.6716 26.7534 36.1712 25.2515 36.419C23.5006 36.6667 21.5009 36.6667 19.75 36.6667C16.7503 36.6667 13.9996 35.9194 10.9999 35.1721C10.7509 35.1721 10.2489 34.9243 10 34.9243C10.2489 32.4387 10 29.9489 10.2489 27.711C10.4979 25.7208 11.4978 23.9784 13.2486 22.7355C14.7505 21.7405 16.2483 21.2409 17.9992 21.2409L22.5007 21.2409ZM20.252 9.2998C23.2516 9.2998 26.0024 11.7895 26.0024 15.0226C26.2513 18.2556 23.5006 20.9931 20.252 20.9931C17.0033 20.9931 14.5056 18.2556 14.2526 15.0226C14.2526 11.7896 17.0033 9.2998 20.252 9.2998Z" fill="url(#paint1_linear_1_550)"/>
<path d="M32.2441 15.274C35.4927 15.274 37.7415 16.7646 39.2434 19.7499C39.7454 20.7449 39.9943 21.9878 39.9943 22.9829L39.9948 25.6574C39.995 25.8314 39.9951 26.003 39.9952 26.171L39.9964 27.1288C39.997 27.4287 39.9976 27.7065 39.9984 27.9542L39.9977 28.0612C39.9934 28.2717 39.9629 28.4538 39.7495 28.4538C38.2476 29.2011 36.5008 29.7007 34.9989 29.9484C33.746 30.2003 32.7461 30.2003 31.4972 30.448V28.7056C31.4972 26.4676 30.7504 24.4775 29.2485 22.7351C28.2486 21.74 26.9957 20.9967 25.7468 20.4971C25.7468 20.4971 25.4938 20.2494 25.2448 20.2494C26.7426 19.0065 27.4936 17.2641 27.4936 15.2739L32.2441 15.274ZM29.9994 3.33296C32.9991 3.33296 35.7498 5.82269 35.7498 9.05573C35.9988 12.2887 33.248 15.0262 29.9994 15.0262C28.9995 15.0262 28.2486 14.7744 27.4976 14.5267C27.2446 12.0369 25.9957 10.0467 24 9.05573C24 5.82273 26.7508 3.33296 29.9994 3.33296Z" fill="url(#paint2_linear_1_550)"/>
<defs>
<linearGradient id="paint0_linear_1_550" x1="13.1667" y1="1.00008" x2="7.87471" y2="30.6963" gradientUnits="userSpaceOnUse">
<stop stop-color="#F2357A"/>
<stop offset="1" stop-color="#FBE9F0"/>
</linearGradient>
<linearGradient id="paint1_linear_1_550" x1="1.3282" y1="12.0365" x2="20.9091" y2="6.06029" gradientUnits="userSpaceOnUse">
<stop stop-color="#F2357A"/>
<stop offset="0.99952" stop-color="#9D66E1"/>
</linearGradient>
<linearGradient id="paint2_linear_1_550" x1="32" y1="1.1663" x2="31.9992" y2="30.448" gradientUnits="userSpaceOnUse">
<stop stop-color="#F2357A"/>
<stop offset="1" stop-color="#FBE9F0"/>
</linearGradient>
</defs>
</svg>
